# xmcd
#
# Track frame offsets: 
#        150
#        11675
#        23850
#        40380
#        54487
#        70420
#        87935
#        101102
#        116290
#        132747
#        144797
#        157977
#        172022
#        188642
#        204660
#        217827
#        237377
#        250907
#        267442
#        283290
#
# Disc length: 3948 seconds
#
# Revision: 0
# Processed by: cddbd v1.5.1PL0 Copyright (c) Steve Scherf et al.
# Submitted via: ExactAudioCopy v0.95b1
#
DISCID=280f6a14
DTITLE=Exile - Hang On To Your Heart and Exile
DYEAR=1999
DGENRE=Country
TTITLE0=Promises, Promises
TTITLE1=I Could Get Used To You
TTITLE2=Hang On To Your Heart
TTITLE3=She Likes Her Lovin'
TTITLE4=Music
TTITLE5=I Got Love (Super-Duper Love)
TTITLE6=It'll Be Me
TTITLE7=Practice Makes Perfect
TTITLE8=She's Too Good To Be True
TTITLE9=Proud To Be Her Man
TTITLE10=Take Me To The River
TTITLE11=Woke Up In Love
TTITLE12=Red Dancing Shoes
TTITLE13=We've Still Got Love
TTITLE14=I Just Came Back To Break My Heart Again
TTITLE15=This Could Be The Start Of Something Good
TTITLE16=After All These Years (I'm Still Chasing You)
TTITLE17=High Cost Of Leaving
TTITLE18=I Don't Want To Be A Memory
TTITLE19=Here I Go Again
EXTD=
EXTT0=
EXTT1=
EXTT2=
EXTT3=
EXTT4=
EXTT5=
EXTT6=
EXTT7=
EXTT8=
EXTT9=
EXTT10=
EXTT11=
EXTT12=
EXTT13=
EXTT14=
EXTT15=
EXTT16=
EXTT17=
EXTT18=
EXTT19=
PLAYORDER=
